<svg id="eIacbAzen311" xmlns="http://www.w3.org/2000/svg" xmlns:xlink="http://www.w3.org/1999/xlink" viewBox="0 0 3840 2160" shape-rendering="geometricPrecision" text-rendering="geometricPrecision">
<style><![CDATA[
#eIacbAzen312_ts {animation: eIacbAzen312_ts__ts 1500ms linear 1 normal forwards}@keyframes eIacbAzen312_ts__ts { 0% {transform: translate(3840px,0px) scale(-0.241795,-0.241795)} 100% {transform: translate(3840px,0px) scale(2.762775,2.762775)}} #eIacbAzen314_ts {animation: eIacbAzen314_ts__ts 1500ms linear 1 normal forwards}@keyframes eIacbAzen314_ts__ts { 0% {transform: translate(0px,2160px) scale(-0.183154,-0.208564)} 100% {transform: translate(0px,2160px) scale(2.355817,2.682608)}}
]]></style>
<g id="eIacbAzen312_ts" transform="translate(3840,0) scale(-0.241795,-0.241795)"><g transform="translate(0,0)"><path d="M0,1944c-286.6,4.5-573.1,9-743.9-148-170.9-156.9-226-475.4-385.3-666.8-159.4-191.3-423.1-255.7-576.3-422.8-153.2-167-195.8-436.7-238.5-706.4L0,0Z" fill="#fbae3c"/></g></g><g id="eIacbAzen314_ts" transform="translate(0,2160) scale(-0.183154,-0.208564)"><g transform="translate(0,0)"><path d="M0,-1944c267.3,16.1,534.6,32.2,743.9,148s360.6,331.3,536,516.1c175.3,184.8,374.6,338.9,489.3,547.1C1883.9,-524.7,1914,-262.3,1944,0L0,0Z" fill="#fbae3c"/></g></g></svg>
