<svg id="eMJjQ29hYPl1" xmlns="http://www.w3.org/2000/svg" xmlns:xlink="http://www.w3.org/1999/xlink" viewBox="0 0 3840 2160" shape-rendering="geometricPrecision" text-rendering="geometricPrecision"><g transform="matrix(-.241795 0 0-.241795 3840 0)"><path d="M0,1944c-286.6,4.5-573.1,9-743.9-148-170.9-156.9-226-475.4-385.3-666.8-159.4-191.3-423.1-255.7-576.3-422.8-153.2-167-195.8-436.7-238.5-706.4L0,0Z" fill="#fbae3c"/></g><g transform="matrix(-.183154 0 0-.208564 0 2160)"><path d="M0,-1944c267.3,16.1,534.6,32.2,743.9,148s360.6,331.3,536,516.1c175.3,184.8,374.6,338.9,489.3,547.1C1883.9,-524.7,1914,-262.3,1944,0L0,0Z" fill="#fbae3c"/></g></svg>
